<region> key=$hh_ped
<region> key=$hh_spl
<region> key=$hh_bel   locc$FC=000 hicc$FC=$HIFC
<region> key=$hh_grb
<region> key=$hh_ord_l locc$FC=000 hicc$FC=$HIFC
<region> key=$hh_ord_r locc$FC=000 hicc$FC=$HIFC
<region> key=$hh_rim   locc$FC=000 hicc$FC=$HIFC
<region> key=$hh_top_l locc$FC=000 hicc$FC=$HIFC
<region> key=$hh_top_r locc$FC=000 hicc$FC=$HIFC
<region> key=$hh_sws   locc$FC=000 hicc$FC=$HIFC
<region> key=$hh_opn   locc$FC=000 hicc$FC=$HIFC
